<svg t="1651733822538" class="icon" viewBox="0 0 1024 1024" version="1.1" xmlns="http://www.w3.org/2000/svg" p-id="1640" width="200" height="200"><path d="M957.8 537.84c-0.02-0.4-0.06-0.78-0.12-1.16-0.04-0.26-0.08-0.52-0.14-0.76-0.1-0.36-0.2-0.7-0.32-1.02-0.1-0.26-0.18-0.52-0.3-0.78-0.14-0.3-0.3-0.6-0.48-0.9-0.14-0.24-0.28-0.5-0.44-0.72l-0.12-0.18-133.6-181.34c-0.18-0.24-0.38-0.48-0.56-0.7-0.06-0.06-0.1-0.12-0.14-0.16-0.42-0.44-0.86-0.84-1.34-1.2-0.06-0.04-0.1-0.08-0.14-0.12l-0.12-0.06c-0.48-0.34-0.98-0.64-1.5-0.88-0.12-0.04-0.22-0.1-0.32-0.14-0.54-0.22-1.08-0.42-1.64-0.54-0.06-0.02-0.1-0.02-0.16-0.04-0.52-0.1-1.06-0.18-1.6-0.2-0.1 0-0.2-0.02-0.3-0.02-0.08 0-0.14-0.02-0.22-0.02H209.76c-0.06 0-0.14 0.02-0.2 0.02-0.12 0-0.24 0.02-0.34 0.02-0.52 0.02-1.04 0.1-1.56 0.2-0.06 0.02-0.12 0.02-0.2 0.04-0.54 0.12-1.08 0.32-1.6 0.54-0.12 0.04-0.24 0.1-0.34 0.14-0.52 0.26-1.02 0.54-1.5 0.88l-0.12 0.06c-0.06 0.04-0.08 0.08-0.14 0.12-0.48 0.36-0.92 0.76-1.34 1.2-0.04 0.04-0.08 0.1-0.12 0.16-0.22 0.22-0.42 0.44-0.6 0.7l-133.58 181.34-0.12 0.18c-0.16 0.22-0.3 0.48-0.44 0.72-0.16 0.3-0.34 0.6-0.48 0.9-0.12 0.26-0.2 0.5-0.3 0.76-0.12 0.34-0.24 0.68-0.32 1.04-0.06 0.24-0.1 0.5-0.14 0.76-0.06 0.38-0.1 0.76-0.12 1.16 0 0.14-0.04 0.26-0.04 0.4 0 0.12 0.04 0.22 0.04 0.34 0.02 0.4 0.06 0.78 0.12 1.18 0.04 0.24 0.06 0.48 0.12 0.72 0.08 0.38 0.22 0.74 0.34 1.12 0.08 0.22 0.14 0.44 0.24 0.66 0.16 0.38 0.38 0.74 0.6 1.12 0.1 0.16 0.18 0.34 0.3 0.5 0.26 0.4 0.58 0.78 0.92 1.14 0.1 0.1 0.16 0.22 0.26 0.32h0.02l435.84 432.98c0 0.02 0.02 0.02 0.02 0.02l0.12 0.12c0.42 0.4 0.88 0.78 1.36 1.1 0.02 0 0.02 0.02 0.04 0.02 0.08 0.04 0.14 0.08 0.22 0.12 0.42 0.26 0.84 0.48 1.3 0.68 0.08 0.04 0.14 0.08 0.22 0.12 0.02 0 0.06 0.02 0.08 0.02l0.02 0.02c0.08 0.02 0.18 0.04 0.28 0.08 0.36 0.12 0.74 0.24 1.12 0.32 0.12 0.04 0.24 0.08 0.36 0.1 0 0 0.02 0 0.04 0.02 0.06 0 0.12 0 0.18 0.02 0.56 0.1 1.12 0.16 1.68 0.16 0.58 0 1.14-0.06 1.7-0.16 0.06-0.02 0.12-0.02 0.18-0.02 0-0.02 0.02-0.02 0.04-0.02 0.1-0.02 0.2-0.06 0.32-0.08 0.4-0.1 0.78-0.22 1.16-0.34 0.08-0.04 0.18-0.06 0.28-0.08 0-0.02 0.02-0.02 0.02-0.02 0.02-0.02 0.04-0.02 0.06-0.02 0.08-0.04 0.14-0.08 0.22-0.12 0.46-0.2 0.92-0.44 1.36-0.7 0.06-0.04 0.12-0.06 0.16-0.1 0.02 0 0.02 0 0.04-0.02 0.48-0.32 0.94-0.7 1.36-1.1 0.06-0.06 0.1-0.08 0.14-0.14l435.84-432.98 0.02-0.02c0.08-0.08 0.14-0.18 0.22-0.26 0.36-0.38 0.68-0.76 0.96-1.18 0.12-0.16 0.2-0.34 0.3-0.5 0.22-0.36 0.44-0.74 0.6-1.12 0.1-0.22 0.16-0.44 0.24-0.66 0.12-0.36 0.26-0.74 0.34-1.12 0.06-0.24 0.08-0.48 0.12-0.72 0.06-0.4 0.1-0.78 0.12-1.18 0-0.1 0.04-0.22 0.04-0.34 0-0.14-0.04-0.26-0.04-0.4z m-163.14-170.94l-112.58 155.7-146.9-155.7h259.48z m-134.74 161.34H364.08L512 371.48l147.92 156.76z m-171.1-161.34l-146.9 155.7-112.58-155.7h259.48z m-279.14 6.96l111.64 154.38H95.96l113.72-154.38z m-109.26 174.38h233.68l151.02 382.2-384.7-382.2zM512 944.02l-156.4-395.78h312.8L512 944.02z m26.88-13.6l151.02-382.18h233.68L538.88 930.42z m163.8-402.18l111.64-154.38 113.72 154.38H702.68z" p-id="1641"></path><path d="M668.4 548.24L512 944.02l-156.4-395.78zM923.58 548.24L538.88 930.42l151.02-382.18zM928.04 528.24H702.68l111.64-154.38zM794.66 366.9l-112.58 155.7-146.9-155.7zM659.92 528.24H364.08L512 371.48z" fill="#3594BF" p-id="1642"></path><path d="M529 901l-17 43.02-156.4-395.78h34zM529 389.5l-130.92 138.74h-34L512 371.48z" fill="#FFFFFF" opacity=".2" p-id="1643"></path><path d="M668.4 548.24L512 944.02l-17-43.02 139.4-352.76zM659.92 528.24h-34l-130.92-138.74 17-18.02z" opacity=".2" p-id="1644"></path><path d="M488.82 366.9l-146.9 155.7-112.58-155.7zM321.32 528.24H95.96l113.72-154.38zM485.12 930.44L100.42 548.24h233.68z" fill="#3594BF" p-id="1645"></path><path d="M656.636 556.24L512 922.252 367.364 556.24h289.272m11.764-8H355.6L512 944.02l156.4-395.78zM904.176 556.24l-343.8 341.548L695.34 556.24h208.836m19.404-8H689.9l-151.02 382.18 384.7-382.18zM814.38 387.43l97.832 132.81h-193.874l96.042-132.81m-0.06-13.57l-111.64 154.38h225.36l-113.72-154.38zM779.004 374.9l-97.74 135.176-127.536-135.176h225.276m15.656-8H535.18l146.9 155.7 112.58-155.7zM512 383.136l129.372 137.104H382.628L512 383.136m0-11.656l-147.92 156.76h295.84L512 371.48zM470.274 374.9l-127.536 135.176-97.74-135.176h225.276m18.546-8H229.34l112.58 155.7 146.9-155.7zM209.62 387.43l96.042 132.81H111.79l97.83-132.81m0.06-13.57l-113.72 154.38h225.36l-111.64-154.38zM328.66 556.24l134.964 341.566-343.8-341.566H328.66m5.44-8H100.42l384.7 382.2-151.02-382.2z" opacity=".2" p-id="1646"></path><path d="M353.22 510.6l-11.32 12-112.58-155.7h20zM219.56 387.56l-103.62 140.68h-20l113.72-154.38zM485.1 930.44L100.4 548.24h20l351.78 349.48z" fill="#FFFFFF" opacity=".2" p-id="1647"></path><path d="M670.642 510.6l11.32 12 112.58-155.7h-20zM804.302 387.56l103.62 140.68h20l-113.72-154.38zM538.762 930.44l384.7-382.2h-20l-351.78 349.48z" opacity=".2" p-id="1648"></path><path d="M509.828 123.272a10 10 0 0 0 10-10v-60.5a10 10 0 1 0-20 0v60.5a10 10 0 0 0 10 10zM343.25 160.586a9.996 9.996 0 0 0 13.662 3.658 10.004 10.004 0 0 0 3.66-13.662L330.32 98.198a10 10 0 0 0-17.322 10.002l30.252 52.386zM178.904 249.606l52.398 30.246a9.994 9.994 0 0 0 13.66-3.662 10 10 0 0 0-3.662-13.66l-52.398-30.246a9.996 9.996 0 0 0-13.66 3.662 10.002 10.002 0 0 0 3.662 13.66zM783.354 281.192c1.696 0 3.414-0.432 4.988-1.34l52.408-30.246a10 10 0 0 0 3.662-13.66 9.996 9.996 0 0 0-13.658-3.662l-52.408 30.246a10 10 0 0 0 5.008 18.662zM662.742 164.246a9.998 9.998 0 0 0 13.662-3.658l30.262-52.39a10.002 10.002 0 0 0-17.32-10.004l-30.262 52.39a10.002 10.002 0 0 0 3.658 13.662z" p-id="1649"></path></svg>